<svg xmlns="http://www.w3.org/2000/svg" width="264" height="100" fill="none" viewBox="0 0 264 100">
  <rect width="20.293" height="55.806" x="35.315" y="21.173" fill="#7073EE" rx="2.537"/>
  <rect width="22.322" height="55.298" x="12.254" y="21.254" fill="#EF2346" rx="2.283"/>
  <rect width="22.322" height="55.298" x="12.254" y="21.254" stroke="#EF2346" stroke-width=".507" rx="2.283"/>
  <rect width="17.756" height="55.806" x="53.854" y="23.164" fill="#FABA26" rx="2.537" transform="rotate(-7 53.854 23.164)"/>
  <path fill="#000" d="M88.804 71.688h8.46V75H84.7V49.98h4.104v21.708Zm13.98-19.152c-.744 0-1.368-.252-1.872-.756s-.756-1.128-.756-1.872c0-.744.252-1.368.756-1.872s1.128-.756 1.872-.756a2.5 2.5 0 0 1 1.836.756c.504.504.756 1.128.756 1.872 0 .744-.252 1.368-.756 1.872a2.5 2.5 0 0 1-1.836.756Zm2.016 2.628V75h-4.104V55.164h4.104Zm9.492 2.952c.696-.96 1.644-1.74 2.844-2.34 1.224-.624 2.58-.936 4.068-.936 1.752 0 3.336.42 4.752 1.26 1.416.84 2.532 2.04 3.348 3.6.816 1.536 1.224 3.3 1.224 5.292s-.408 3.78-1.224 5.364c-.816 1.56-1.944 2.784-3.384 3.672-1.416.864-2.988 1.296-4.716 1.296-1.536 0-2.904-.3-4.104-.9-1.176-.6-2.112-1.368-2.808-2.304V75h-4.104V48.36h4.104v9.756Zm12.06 6.876c0-1.368-.288-2.544-.864-3.528-.552-1.008-1.296-1.764-2.232-2.268a5.792 5.792 0 0 0-2.952-.792 5.922 5.922 0 0 0-2.952.792c-.912.528-1.656 1.296-2.232 2.304-.552 1.008-.828 2.196-.828 3.564 0 1.368.276 2.568.828 3.6.576 1.008 1.32 1.776 2.232 2.304.936.528 1.92.792 2.952.792 1.056 0 2.04-.264 2.952-.792.936-.552 1.68-1.344 2.232-2.376.576-1.032.864-2.232.864-3.6Zm12.339-6.948a6.348 6.348 0 0 1 2.376-2.34c1.008-.576 2.196-.864 3.564-.864v4.248h-1.044c-1.608 0-2.832.408-3.672 1.224-.816.816-1.224 2.232-1.224 4.248V75h-4.104V55.164h4.104v2.88Zm8.344 6.948c0-1.992.408-3.756 1.224-5.292.84-1.536 1.968-2.724 3.384-3.564 1.44-.864 3.024-1.296 4.752-1.296 1.56 0 2.916.312 4.068.936 1.176.6 2.112 1.356 2.808 2.268v-2.88h4.14V75h-4.14v-2.952c-.696.936-1.644 1.716-2.844 2.34-1.2.624-2.568.936-4.104.936-1.704 0-3.264-.432-4.68-1.296-1.416-.888-2.544-2.112-3.384-3.672-.816-1.584-1.224-3.372-1.224-5.364Zm16.236.072c0-1.368-.288-2.556-.864-3.564-.552-1.008-1.284-1.776-2.196-2.304a5.792 5.792 0 0 0-2.952-.792c-1.056 0-2.04.264-2.952.792-.912.504-1.656 1.26-2.232 2.268-.552.984-.828 2.16-.828 3.528 0 1.368.276 2.568.828 3.6.576 1.032 1.32 1.824 2.232 2.376.936.528 1.92.792 2.952.792 1.056 0 2.04-.264 2.952-.792.912-.528 1.644-1.296 2.196-2.304.576-1.032.864-2.232.864-3.6Zm13.635-7.02a6.348 6.348 0 0 1 2.376-2.34c1.008-.576 2.196-.864 3.564-.864v4.248h-1.044c-1.608 0-2.832.408-3.672 1.224-.816.816-1.224 2.232-1.224 4.248V75h-4.104V55.164h4.104v2.88Zm27.568-2.88-12.168 29.16h-4.248l4.032-9.648-7.812-19.512h4.572l5.58 15.12 5.796-15.12h4.248Zm19.945-2.052h-11.664v6.156c.504-.624 1.224-1.128 2.16-1.512a7.396 7.396 0 0 1 2.988-.612c1.92 0 3.492.42 4.716 1.26 1.224.84 2.112 1.92 2.664 3.24.552 1.296.828 2.688.828 4.176 0 2.76-.792 4.98-2.376 6.66-1.56 1.68-3.792 2.52-6.696 2.52-2.736 0-4.92-.684-6.552-2.052-1.632-1.368-2.556-3.156-2.772-5.364h4.896c.216.96.696 1.728 1.44 2.304.768.576 1.74.864 2.916.864 1.416 0 2.484-.444 3.204-1.332.72-.888 1.08-2.064 1.08-3.528 0-1.488-.372-2.616-1.116-3.384-.72-.792-1.788-1.188-3.204-1.188-1.008 0-1.848.252-2.52.756-.672.504-1.152 1.176-1.44 2.016h-4.824V48.684h16.272v4.428Zm5.528 8.424c0-4.152.744-7.404 2.232-9.756 1.512-2.352 4.008-3.528 7.488-3.528 3.48 0 5.964 1.176 7.452 3.528 1.512 2.352 2.268 5.604 2.268 9.756 0 4.176-.756 7.452-2.268 9.828-1.488 2.376-3.972 3.564-7.452 3.564s-5.976-1.188-7.488-3.564c-1.488-2.376-2.232-5.652-2.232-9.828Zm14.472 0c0-1.776-.12-3.264-.36-4.464-.216-1.224-.672-2.22-1.368-2.988-.672-.768-1.68-1.152-3.024-1.152s-2.364.384-3.06 1.152c-.672.768-1.128 1.764-1.368 2.988-.216 1.2-.324 2.688-.324 4.464 0 1.824.108 3.36.324 4.608.216 1.224.672 2.22 1.368 2.988.696.744 1.716 1.116 3.06 1.116s2.364-.372 3.06-1.116c.696-.768 1.152-1.764 1.368-2.988.216-1.248.324-2.784.324-4.608Z"/>
</svg>
